<svg width="298" height="70" viewBox="0 0 298 70" fill="none" xmlns="http://www.w3.org/2000/svg">
<g clip-path="url(#clip0_4_2)">
<path d="M220.798 70H241.522L263.291 45.4032L270.657 60.4625H286.382L275.759 37.6994L274.284 34.5441L297.364 9.01507H277.255L266.621 20.5093L257.954 0H242.301L256.54 31.3991L220.798 70Z" fill="#E30613"/>
<path d="M109.625 60.5855H123.916L137.767 9.01514H123.476L109.625 60.5855Z" fill="#1D1D1B"/>
<path fill-rule="evenodd" clip-rule="evenodd" d="M17.7536 47.9234L22.9577 28.6332L18.4707 21.6977H28.9507C33.9602 21.6977 37.1462 22.8861 39.0414 24.8735C39.9296 25.8144 40.6167 26.9265 41.0605 28.1418C41.5044 29.3572 41.6958 30.6503 41.623 31.9421C41.6033 35.9669 40.0158 39.8255 37.1974 42.6988C33.8168 46.0897 28.4385 47.9337 22.466 47.9337H17.7536V47.9234ZM0 60.606H20.7756C32.7104 60.606 41.623 57.2868 47.8106 51.0992C50.5098 48.4476 52.6502 45.282 54.1053 41.7893C55.5605 38.2966 56.3009 34.5477 56.2827 30.764C56.2827 24.5047 54.5105 19.4952 50.6791 15.6638C46.8477 11.8324 40.4859 9.05615 30.4976 9.05615H5.55246L2.22303 21.165H10.5927L0 60.606Z" fill="#1D1D1B"/>
<path fill-rule="evenodd" clip-rule="evenodd" d="M149.271 60.9543H162.599L195.77 9.01514H194.664H170.743L175.21 16.4628L160.335 41.4387L156.504 9.01514H140.881L149.271 60.9543Z" fill="#1D1D1B"/>
<path d="M78.0111 33.7759L79.5375 28.2132L75.1324 21.3904H89.1365C92.1586 21.3904 94.2587 21.9743 95.4675 23.1524C95.9066 23.6135 96.2502 24.1567 96.4787 24.7509C96.7073 25.3451 96.8162 25.9786 96.7993 26.615C96.7993 31.0406 92.5991 33.7861 86.1861 33.7861H77.9906L78.0111 33.7759ZM56.4774 60.606H70.8195L76.9149 37.5151L88.1838 60.606H104.001L95.109 43.5183C105.794 40.947 111.5 33.5607 111.5 24.9452C111.577 23.0131 111.264 21.0852 110.581 19.2762C109.899 17.4671 108.859 15.8136 107.525 14.414C104.063 10.9513 98.3872 9.03564 89.7717 9.03564H64.5909L61.2513 21.1445H67.1213L56.4774 60.606Z" fill="#1D1D1B"/>
<path d="M187.964 60.5855H233.685L228.194 48.4356H205.359L207.562 40.2606H225.623L220.644 28.9815H210.584L210.789 28.2439L212.725 21.1855V21.1752H235.007L238.326 9.01514H196.139L200.063 15.5613L187.964 60.5855Z" fill="#1D1D1B"/>
<path fill-rule="evenodd" clip-rule="evenodd" d="M133.126 26.4306L138.494 6.40283H114.829L133.126 26.4306Z" fill="#E30613"/>
</g>
<defs>
<clipPath id="clip0_4_2">
<rect width="297.364" height="70" fill="white"/>
</clipPath>
</defs>
</svg>
