<svg width="18" height="16" viewBox="0 0 18 16" fill="none" xmlns="http://www.w3.org/2000/svg">
<path d="M1.60828 16C1.60828 16 0.199951 16 0.199951 14.6667C0.199951 13.3333 1.60828 9.33333 8.64995 9.33333C15.6916 9.33333 17.1 13.3333 17.1 14.6667C17.1 16 15.6916 16 15.6916 16H1.60828ZM8.64995 8C9.77049 8 10.8451 7.57857 11.6375 6.82843C12.4298 6.07828 12.875 5.06087 12.875 4C12.875 2.93913 12.4298 1.92172 11.6375 1.17157C10.8451 0.421427 9.77049 0 8.64995 0C7.52941 0 6.45477 0.421427 5.66243 1.17157C4.87008 1.92172 4.42495 2.93913 4.42495 4C4.42495 5.06087 4.87008 6.07828 5.66243 6.82843C6.45477 7.57857 7.52941 8 8.64995 8Z" fill="white"/>
</svg>
